<mxfile host="65bd71144e">
    <diagram id="YA6p9yYFkWpGs68tOHZM" name="ページ1">
        <mxGraphModel dx="502" dy="360" grid="1" gridSize="10" guides="1" tooltips="1" connect="1" arrows="1" fold="1" page="1" pageScale="1" pageWidth="827" pageHeight="1169" math="0" shadow="0">
            <root>
                <mxCell id="0"/>
                <mxCell id="1" parent="0"/>
                <mxCell id="2" value="rect" style="rounded=0;whiteSpace=wrap;html=1;" vertex="1" parent="1">
                    <mxGeometry x="60" y="130" width="380" height="170" as="geometry"/>
                </mxCell>
                <mxCell id="3" value="メニュー" style="rounded=0;whiteSpace=wrap;html=1;" vertex="1" parent="1">
                    <mxGeometry x="440" y="185" width="120" height="60" as="geometry"/>
                </mxCell>
                <mxCell id="4" value="rect" style="rounded=0;whiteSpace=wrap;html=1;" vertex="1" parent="1">
                    <mxGeometry x="60" y="350" width="380" height="170" as="geometry"/>
                </mxCell>
                <mxCell id="5" value="メニュー" style="rounded=0;whiteSpace=wrap;html=1;" vertex="1" parent="1">
                    <mxGeometry x="320" y="405" width="120" height="60" as="geometry"/>
                </mxCell>
                <mxCell id="7" value="現在の状況" style="text;html=1;align=center;verticalAlign=middle;whiteSpace=wrap;rounded=0;" vertex="1" parent="1">
                    <mxGeometry x="60" y="100" width="90" height="30" as="geometry"/>
                </mxCell>
                <mxCell id="8" value="目標" style="text;html=1;align=center;verticalAlign=middle;whiteSpace=wrap;rounded=0;" vertex="1" parent="1">
                    <mxGeometry x="60" y="320" width="90" height="30" as="geometry"/>
                </mxCell>
            </root>
        </mxGraphModel>
    </diagram>
</mxfile>